<svg width="48" height="48" viewBox="0 0 48 48" fill="none" xmlns="http://www.w3.org/2000/svg">
<g clip-path="url(#clip0_619_263)">
<path d="M48 14V16H0V14C0 8.478 4.478 4 10 4H12V2C12 0.896 12.896 0 14 0C15.104 0 16 0.896 16 2V4H32V2C32 0.896 32.896 0 34 0C35.104 0 36 0.896 36 2V4H38C43.522 4 48 8.478 48 14ZM48 34C48 41.72 41.718 48 34 48C26.282 48 20 41.72 20 34C20 26.28 26.282 20 34 20C41.718 20 48 26.28 48 34ZM38 35.172L36 33.172V30C36 28.896 35.104 28 34 28C32.896 28 32 28.896 32 30V34C32 34.53 32.21 35.04 32.586 35.414L35.172 38C35.952 38.78 37.22 38.78 38 38C38.78 37.22 38.78 35.952 38 35.172ZM16 34C16 28.342 18.616 23.3 22.698 20H0V38C0 43.522 4.478 48 10 48H22.698C18.616 44.7 16 39.658 16 34Z" fill="url(#paint0_linear_619_263)"/>
</g>
<defs>
<linearGradient id="paint0_linear_619_263" x1="48" y1="-2.86102e-06" x2="2.86102e-06" y2="48" gradientUnits="userSpaceOnUse">
<stop stop-color="#F19722"/>
<stop offset="1" stop-color="#BB6F0C"/>
</linearGradient>
<clipPath id="clip0_619_263">
<rect width="48" height="48" fill="white"/>
</clipPath>
</defs>
</svg>
